<svg width="78" height="45" viewBox="0 0 78 45" fill="none" xmlns="http://www.w3.org/2000/svg">
<path d="M2.46582 9.62665H10.4803C12.4211 9.62665 14.2592 9.83545 15.9946 10.253C17.7527 10.6706 19.2826 11.352 20.5841 12.2971C21.8856 13.2202 22.9131 14.429 23.6666 15.9235C24.4429 17.4181 24.8311 19.2313 24.8311 21.3632C24.8311 23.2534 24.4543 24.9238 23.7008 26.3744C22.9701 27.803 21.9769 29.0118 20.7211 30.0008C19.4652 30.968 18.0153 31.7041 16.3713 32.2097C14.7273 32.7153 13.0034 32.9679 11.1996 32.9679H2.46582V9.62665ZM7.80882 28.2206H10.5831C11.8161 28.2206 12.9577 28.0998 14.0081 27.8579C15.0812 27.6161 16.006 27.2205 16.7823 26.6711C17.5586 26.0995 18.1637 25.3634 18.5976 24.4622C19.0542 23.5391 19.2826 22.4182 19.2826 21.0995C19.2826 19.9566 19.0542 18.9676 18.5976 18.1324C18.1637 17.2752 17.5701 16.5719 16.8166 16.0224C16.0631 15.473 15.1726 15.0664 14.1451 14.8026C13.1404 14.5169 12.0786 14.374 10.9598 14.374H7.80882V28.2206ZM37.5648 30.9569H37.4963C36.9256 31.8141 36.1606 32.4294 35.2016 32.8031C34.2653 33.1768 33.2721 33.3636 32.2218 33.3636C31.4456 33.3636 30.6921 33.2536 29.9613 33.0339C29.2536 32.8361 28.6256 32.5283 28.0776 32.1108C27.5296 31.6933 27.0958 31.1766 26.7761 30.5613C26.4563 29.946 26.2966 29.2315 26.2966 28.4184C26.2966 27.4953 26.4678 26.7151 26.8103 26.0776C27.1756 25.4402 27.6551 24.9127 28.2488 24.4952C28.8653 24.0777 29.5618 23.7589 30.3381 23.5391C31.1143 23.2973 31.9136 23.1215 32.7356 23.0116C33.5803 22.9017 34.4138 22.8358 35.2358 22.8138C36.0806 22.7919 36.8571 22.7809 37.5648 22.7809C37.5648 21.9017 37.2338 21.2094 36.5716 20.7039C35.9323 20.1764 35.1673 19.9126 34.2768 19.9126C33.4321 19.9126 32.6556 20.0885 31.9478 20.4401C31.2628 20.7698 30.6463 21.2314 30.0983 21.8248L27.3583 19.1214C28.3173 18.2642 29.4361 17.6269 30.7148 17.2093C31.9936 16.7697 33.3178 16.5499 34.6878 16.5499C36.1948 16.5499 37.4278 16.7367 38.3868 17.1104C39.3686 17.462 40.1451 17.9895 40.7158 18.6928C41.3096 19.3962 41.7206 20.2643 41.9488 21.2973C42.1771 22.3083 42.2913 23.4842 42.2913 24.8249V32.9679H37.5648V30.9569ZM36.2976 25.9458C35.9093 25.9458 35.4186 25.9677 34.8248 26.0117C34.2541 26.0336 33.6946 26.1217 33.1466 26.2755C32.6213 26.4292 32.1648 26.66 31.7766 26.9678C31.4113 27.2756 31.2286 27.7041 31.2286 28.2535C31.2286 28.847 31.4911 29.2866 32.0163 29.5722C32.5416 29.8579 33.0896 30.0008 33.6603 30.0008C34.1626 30.0008 34.6421 29.9349 35.0988 29.803C35.5783 29.6711 36.0008 29.4844 36.3661 29.2426C36.7313 29.0007 37.0168 28.6932 37.2223 28.3195C37.4506 27.9457 37.5648 27.5063 37.5648 27.0007V25.9458H36.2976ZM44.8981 8.04419H50.0356V32.9679H44.8981V8.04419ZM53.1101 16.9455H58.2476V32.9679H53.1101V16.9455ZM52.6991 11.9014C52.6991 11.1102 52.9846 10.4399 53.5553 9.89039C54.1491 9.31894 54.8568 9.03323 55.6788 9.03323C56.5008 9.03323 57.1973 9.31894 57.7681 9.89039C58.3618 10.4399 58.6586 11.1102 58.6586 11.9014C58.6586 12.6927 58.3618 13.374 57.7681 13.9454C57.1973 14.4949 56.5008 14.7696 55.6788 14.7696C54.8568 14.7696 54.1491 14.4949 53.5553 13.9454C52.9846 13.374 52.6991 12.6927 52.6991 11.9014ZM71.6998 30.9569H71.6313C71.0606 31.8141 70.2956 32.4294 69.3366 32.8031C68.4003 33.1768 67.4071 33.3636 66.3568 33.3636C65.5806 33.3636 64.8271 33.2536 64.0963 33.0339C63.3886 32.8361 62.7606 32.5283 62.2126 32.1108C61.6646 31.6933 61.2308 31.1766 60.9111 30.5613C60.5913 29.946 60.4316 29.2315 60.4316 28.4184C60.4316 27.4953 60.6028 26.7151 60.9453 26.0776C61.3106 25.4402 61.7901 24.9127 62.3838 24.4952C63.0003 24.0777 63.6968 23.7589 64.4731 23.5391C65.2493 23.2973 66.0486 23.1215 66.8706 23.0116C67.7153 22.9017 68.5488 22.8358 69.3708 22.8138C70.2156 22.7919 70.9921 22.7809 71.6998 22.7809C71.6998 21.9017 71.3688 21.2094 70.7066 20.7039C70.0673 20.1764 69.3023 19.9126 68.4118 19.9126C67.5671 19.9126 66.7906 20.0885 66.0828 20.4401C65.3978 20.7698 64.7813 21.2314 64.2333 21.8248L61.4933 19.1214C62.4523 18.2642 63.5711 17.6269 64.8498 17.2093C66.1286 16.7697 67.4528 16.5499 68.8228 16.5499C70.3298 16.5499 71.5628 16.7367 72.5218 17.1104C73.5036 17.462 74.2801 17.9895 74.8508 18.6928C75.4446 19.3962 75.8556 20.2643 76.0838 21.2973C76.3121 22.3083 76.4263 23.4842 76.4263 24.8249V32.9679H71.6998V30.9569ZM70.4326 25.9458C70.0443 25.9458 69.5536 25.9677 68.9598 26.0117C68.3891 26.0336 67.8296 26.1217 67.2816 26.2755C66.7563 26.4292 66.2998 26.66 65.9116 26.9678C65.5463 27.2756 65.3636 27.7041 65.3636 28.2535C65.3636 28.847 65.6261 29.2866 66.1513 29.5722C66.6766 29.8579 67.2246 30.0008 67.7953 30.0008C68.2976 30.0008 68.7771 29.9349 69.2338 29.803C69.7133 29.6711 70.1358 29.4844 70.5011 29.2426C70.8663 29.0007 71.1518 28.6932 71.3573 28.3195C71.5856 27.9457 71.6998 27.5063 71.6998 27.0007V25.9458H70.4326Z" fill="#5C00F5"/>
</svg>
