<svg width="78" height="45" xmlns="http://www.w3.org/2000/svg">

 <g>
  <title>Layer 1</title>
  <path id="svg_1" fill="#fcfcfc" d="m2.46582,9.62665l8.01448,0c1.9408,0 3.7789,0.2088 5.5143,0.62635c1.7581,0.4176 3.288,1.099 4.5895,2.0441c1.3015,0.9231 2.329,2.1319 3.0825,3.6264c0.7763,1.4946 1.1645,3.3078 1.1645,5.4397c0,1.8902 -0.3768,3.5606 -1.1303,5.0112c-0.7307,1.4286 -1.7239,2.6374 -2.9797,3.6264c-1.2559,0.9672 -2.7058,1.7033 -4.3498,2.2089c-1.644,0.5056 -3.3679,0.7582 -5.1717,0.7582l-8.73378,0l0,-23.34125zm5.343,18.59395l2.77428,0c1.233,0 2.3746,-0.1208 3.425,-0.3627c1.0731,-0.2418 1.9979,-0.6374 2.7742,-1.1868c0.7763,-0.5716 1.3814,-1.3077 1.8153,-2.2089c0.4566,-0.9231 0.685,-2.044 0.685,-3.3627c0,-1.1429 -0.2284,-2.1319 -0.685,-2.9671c-0.4339,-0.8572 -1.0275,-1.5605 -1.781,-2.11c-0.7535,-0.5494 -1.644,-0.956 -2.6715,-1.2198c-1.0047,-0.2857 -2.0665,-0.4286 -3.1853,-0.4286l-3.15098,0l0,13.8466zm29.75598,2.7363l-0.0685,0c-0.5707,0.8572 -1.3357,1.4725 -2.2947,1.8462c-0.9363,0.3737 -1.9295,0.5605 -2.9798,0.5605c-0.7762,0 -1.5297,-0.11 -2.2605,-0.3297c-0.7077,-0.1978 -1.3357,-0.5056 -1.8837,-0.9231c-0.548,-0.4175 -0.9818,-0.9342 -1.3015,-1.5495c-0.3198,-0.6153 -0.4795,-1.3298 -0.4795,-2.1429c0,-0.9231 0.1712,-1.7033 0.5137,-2.3408c0.3653,-0.6374 0.8448,-1.1649 1.4385,-1.5824c0.6165,-0.4175 1.313,-0.7363 2.0893,-0.9561c0.7762,-0.2418 1.5755,-0.4176 2.3975,-0.5275c0.8447,-0.1099 1.6782,-0.1758 2.5002,-0.1978c0.8448,-0.0219 1.6213,-0.0329 2.329,-0.0329c0,-0.8792 -0.331,-1.5715 -0.9932,-2.077c-0.6393,-0.5275 -1.4043,-0.7913 -2.2948,-0.7913c-0.8447,0 -1.6212,0.1759 -2.329,0.5275c-0.685,0.3297 -1.3015,0.7913 -1.8495,1.3847l-2.74,-2.7034c0.959,-0.8572 2.0778,-1.4945 3.3565,-1.9121c1.2788,-0.4396 2.603,-0.6594 3.973,-0.6594c1.507,0 2.74,0.1868 3.699,0.5605c0.9818,0.3516 1.7583,0.8791 2.329,1.5824c0.5938,0.7034 1.0048,1.5715 1.233,2.6045c0.2283,1.011 0.3425,2.1869 0.3425,3.5276l0,8.143l-4.7265,0l0,-2.011zm-1.2672,-5.0111c-0.3883,0 -0.879,0.0219 -1.4728,0.0659c-0.5707,0.0219 -1.1302,0.11 -1.6782,0.2638c-0.5253,0.1537 -0.9818,0.3845 -1.37,0.6923c-0.3653,0.3078 -0.548,0.7363 -0.548,1.2857c0,0.5935 0.2625,1.0331 0.7877,1.3187c0.5253,0.2857 1.0733,0.4286 1.644,0.4286c0.5023,0 0.9818,-0.0659 1.4385,-0.1978c0.4795,-0.1319 0.902,-0.3186 1.2673,-0.5604c0.3652,-0.2419 0.6507,-0.5494 0.8562,-0.9231c0.2283,-0.3738 0.3425,-0.8132 0.3425,-1.3188l0,-1.0549l-1.2672,0zm8.6005,-17.90161l5.1375,0l0,24.92371l-5.1375,0l0,-24.92371zm8.212,8.90131l5.1375,0l0,16.0224l-5.1375,0l0,-16.0224zm-0.411,-5.0441c0,-0.7912 0.2855,-1.4615 0.8562,-2.01101c0.5938,-0.57145 1.3015,-0.85716 2.1235,-0.85716c0.822,0 1.5185,0.28571 2.0893,0.85716c0.5937,0.54951 0.8905,1.21981 0.8905,2.01101c0,0.7913 -0.2968,1.4726 -0.8905,2.044c-0.5708,0.5495 -1.2673,0.8242 -2.0893,0.8242c-0.822,0 -1.5297,-0.2747 -2.1235,-0.8242c-0.5707,-0.5714 -0.8562,-1.2527 -0.8562,-2.044zm19.0007,19.0555l-0.0685,0c-0.5707,0.8572 -1.3357,1.4725 -2.2947,1.8462c-0.9363,0.3737 -1.9295,0.5605 -2.9798,0.5605c-0.7762,0 -1.5297,-0.11 -2.2605,-0.3297c-0.7077,-0.1978 -1.3357,-0.5056 -1.8837,-0.9231c-0.548,-0.4175 -0.9818,-0.9342 -1.3015,-1.5495c-0.3198,-0.6153 -0.4795,-1.3298 -0.4795,-2.1429c0,-0.9231 0.1712,-1.7033 0.5137,-2.3408c0.3653,-0.6374 0.8448,-1.1649 1.4385,-1.5824c0.6165,-0.4175 1.313,-0.7363 2.0893,-0.9561c0.7762,-0.2418 1.5755,-0.4176 2.3975,-0.5275c0.8447,-0.1099 1.6782,-0.1758 2.5002,-0.1978c0.8448,-0.0219 1.6213,-0.0329 2.329,-0.0329c0,-0.8792 -0.331,-1.5715 -0.9932,-2.077c-0.6393,-0.5275 -1.4043,-0.7913 -2.2948,-0.7913c-0.8447,0 -1.6212,0.1759 -2.329,0.5275c-0.685,0.3297 -1.3015,0.7913 -1.8495,1.3847l-2.74,-2.7034c0.959,-0.8572 2.0778,-1.4945 3.3565,-1.9121c1.2788,-0.4396 2.603,-0.6594 3.973,-0.6594c1.507,0 2.74,0.1868 3.699,0.5605c0.9818,0.3516 1.7583,0.8791 2.329,1.5824c0.5938,0.7034 1.0048,1.5715 1.233,2.6045c0.2283,1.011 0.3425,2.1869 0.3425,3.5276l0,8.143l-4.7265,0l0,-2.011zm-1.2672,-5.0111c-0.3883,0 -0.879,0.0219 -1.4728,0.0659c-0.5707,0.0219 -1.1302,0.11 -1.6782,0.2638c-0.5253,0.1537 -0.9818,0.3845 -1.37,0.6923c-0.3653,0.3078 -0.548,0.7363 -0.548,1.2857c0,0.5935 0.2625,1.0331 0.7877,1.3187c0.5253,0.2857 1.0733,0.4286 1.644,0.4286c0.5023,0 0.9818,-0.0659 1.4385,-0.1978c0.4795,-0.1319 0.902,-0.3186 1.2673,-0.5604c0.3652,-0.2419 0.6507,-0.5494 0.8562,-0.9231c0.2283,-0.3738 0.3425,-0.8132 0.3425,-1.3188l0,-1.0549l-1.2672,0z"/>
 </g>
</svg>